<svg version="1.1" id="Capa_1" xmlns="http://www.w3.org/2000/svg" x="0" y="0" viewBox="0 0 550 550" style="enable-background:new 0 0 550 550" xml:space="preserve"><style>.st4{fill:url(#SVGID_4_)}.st5{fill:url(#SVGID_5_)}.st6{fill:url(#SVGID_6_)}.st7{fill:url(#SVGID_7_)}.st8{fill:url(#SVGID_8_)}.st9{fill:url(#SVGID_9_)}.st10{fill:url(#SVGID_10_)}.st11{fill:url(#SVGID_11_)}.st12{fill:url(#SVGID_12_)}.st13{fill:url(#SVGID_13_)}.st14{fill:url(#SVGID_14_)}.st15{fill:url(#SVGID_15_)}.st16{fill:url(#SVGID_16_)}.st17{fill:url(#SVGID_17_)}.st18{fill:url(#SVGID_18_)}.st19{fill:url(#SVGID_19_)}.st20{fill:url(#SVGID_20_)}.st21{fill:url(#SVGID_21_)}.st22{fill:url(#SVGID_22_)}</style><switch><g><linearGradient id="SVGID_1_" gradientUnits="userSpaceOnUse" x1="387.02" y1="537.309" x2="288.615" y2="225.694"><stop offset="0" style="stop-color:#00154f"/><stop offset="1" style="stop-color:#2561ff"/></linearGradient><path d="M444.44 524.98h-26.27l-.25.02-102.18-.02-9.76-34.32-3.06-12.09-23.11-83.77c43.76-2.4 84.77-12.22 120.83-27.79l36.8 132.64.34 1.65 6.66 23.68z" style="fill:url(#SVGID_1_)"/><linearGradient id="SVGID_2_" gradientUnits="userSpaceOnUse" x1="214.992" y1="338.28" x2="542.043" y2="-180.849"><stop offset="0" style="stop-color:#00154f"/><stop offset="1" style="stop-color:#2561ff"/></linearGradient><path d="M520.77 210.18C497.98 331.62 400.61 366.9 400.61 366.9l.03.12c-36.06 15.57-77.08 25.39-120.83 27.79l-.24-.85 29.29-102.39c.05-.15.16-.57.81-.88.3-.15.69-.28 1.18-.28 27.68 0 56.16-12.58 78.28-34.5 14.55-14.17 25.01-31.3 30.22-49.47 6.69-23.33 2.85-46.85-10.48-64.54-13.35-17.69-34.74-27.83-58.72-27.83h-78.86L251.2 184.8l-54.99-47.96v-.04l-.13-.09-68.71 31.3 40.58-142.97h.09L168 25h227.75c1.35 0 2.13.14 2.47.22l1.5.36h1.18c40.86 3.25 74.69 21.37 95.33 51.03 22.68 32.64 33.46 86.07 24.54 133.57z" style="fill:url(#SVGID_2_)"/><path style="fill:#2561ff" d="M71.72 363.96 26.1 524.73h128.6l41.03-144.57-54.66-47.78z"/><linearGradient id="SVGID_3_" gradientUnits="userSpaceOnUse" x1="-31.397" y1="518.779" x2="95.31" y2="357.228"><stop offset="0" style="stop-color:#b6ff0b"/><stop offset="1" style="stop-color:#2561ff"/></linearGradient><path style="fill:url(#SVGID_3_)" d="M109.27 231.73v.05L91 296.12l68.89-31.39.37-.14 54.7 47.78 17.77-63.47-55.22-48.24z"/></g></switch></svg>